<svg version="1.1" viewBox="0.0 0.0 1759.6797900262468 816.0" fill="none" stroke="none" stroke-linecap="square" stroke-miterlimit="10" xmlns:xlink="http://www.w3.org/1999/xlink" xmlns="http://www.w3.org/2000/svg"><clipPath id="g10c1ef3d544_0_178.0"><path d="m0 0l1759.6798 0l0 816.0l-1759.6798 0l0 -816.0z" clip-rule="nonzero"/></clipPath><g clip-path="url(#g10c1ef3d544_0_178.0)"><path fill="#ffffff" d="m0 0l1759.6798 0l0 816.0l-1759.6798 0z" fill-rule="evenodd"/><path fill="#dd7e6b" d="m1126.1337 167.08923l0 0c0 -14.776871 11.767578 -26.755905 26.283447 -26.755905l0 0c6.970825 0 13.656128 2.818924 18.585327 7.836624c4.929077 5.0177 7.698242 11.823181 7.698242 18.919281l0 0c0 14.776886 -11.767578 26.755905 -26.28357 26.755905l0 0c-14.515869 0 -26.283447 -11.979019 -26.283447 -26.755905z" fill-rule="evenodd"/><path fill="#ea9999" d="m1081.6738 292.04916l0 0c0 -14.776855 11.767578 -26.75589 26.283447 -26.75589l0 0c6.970825 0 13.656128 2.8189087 18.585327 7.836609c4.929077 5.0177 7.698242 11.823181 7.698242 18.919281l0 0c0 14.776886 -11.767578 26.75592 -26.28357 26.75592l0 0c-14.515869 0 -26.283447 -11.979034 -26.283447 -26.75592z" fill-rule="evenodd"/><path fill="#76a5af" d="m1037.214 417.00912l0 0c0 -14.776886 11.767578 -26.75592 26.283447 -26.75592l0 0c6.970825 0 13.656128 2.8189087 18.585327 7.836609c4.929077 5.0177307 7.698242 11.823181 7.698242 18.919312l0 0c0 14.776855 -11.767578 26.75589 -26.28357 26.75589l0 0c-14.515869 0 -26.283447 -11.979034 -26.283447 -26.75589z" fill-rule="evenodd"/><path stroke="#45818e" stroke-width="1.0" stroke-linejoin="round" stroke-linecap="butt" d="m1037.214 417.00912l0 0c0 -14.776886 11.767578 -26.75592 26.283447 -26.75592l0 0c6.970825 0 13.656128 2.8189087 18.585327 7.836609c4.929077 5.0177307 7.698242 11.823181 7.698242 18.919312l0 0c0 14.776855 -11.767578 26.75589 -26.28357 26.75589l0 0c-14.515869 0 -26.283447 -11.979034 -26.283447 -26.75589z" fill-rule="evenodd"/><path fill="#e69138" d="m981.4956 541.96906l0 0c0 -14.7769165 12.084778 -26.75592 26.992126 -26.75592l0 0c7.1587524 0 14.024292 2.8189087 19.086243 7.836609c5.0620117 5.0177 7.905884 11.823181 7.905884 18.919312l0 0c0 14.776855 -12.084778 26.75592 -26.992126 26.75592l0 0c-14.907349 0 -26.992126 -11.979065 -26.992126 -26.75592z" fill-rule="evenodd"/><path fill="#bf9000" d="m934.30707 681.7594l0 0c0 -14.776855 11.767517 -26.75592 26.283508 -26.75592l0 0c6.970764 0 13.656067 2.8189087 18.585205 7.836609c4.929077 5.017761 7.698242 11.823181 7.698242 18.919312l0 0c0 14.776855 -11.767517 26.75592 -26.283447 26.75592l0 0c-14.515991 0 -26.283508 -11.979065 -26.283508 -26.75592z" fill-rule="evenodd"/><path fill="#f6b26b" d="m1164.5309 292.04916l0 0c0 -14.776855 11.767456 -26.75589 26.283447 -26.75589l0 0c6.970825 0 13.656128 2.8189087 18.585205 7.836609c4.929077 5.0177 7.698242 11.823181 7.698242 18.919281l0 0c0 14.776886 -11.767578 26.75592 -26.283447 26.75592l0 0c-14.515991 0 -26.283447 -11.979034 -26.283447 -26.75592z" fill-rule="evenodd"/><path fill="#93c47d" d="m1213.0325 417.00912l0 0c0 -14.776886 11.767456 -26.75592 26.283447 -26.75592l0 0c6.970825 0 13.656128 2.8189087 18.585205 7.836609c4.929199 5.0177307 7.698242 11.823181 7.698242 18.919312l0 0c0 14.776855 -11.767456 26.75589 -26.283447 26.75589l0 0c-14.515991 0 -26.283447 -11.979034 -26.283447 -26.75589z" fill-rule="evenodd"/><path stroke="#76a5af" stroke-width="1.0" stroke-linejoin="round" stroke-linecap="butt" d="m1213.0325 417.00912l0 0c0 -14.776886 11.767456 -26.75592 26.283447 -26.75592l0 0c6.970825 0 13.656128 2.8189087 18.585205 7.836609c4.929199 5.0177307 7.698242 11.823181 7.698242 18.919312l0 0c0 14.776855 -11.767456 26.75589 -26.283447 26.75589l0 0c-14.515991 0 -26.283447 -11.979034 -26.283447 -26.75589z" fill-rule="evenodd"/><path fill="#6d9eeb" d="m1257.5421 541.96906l0 0c0 -14.7769165 12.084839 -26.75592 26.992188 -26.75592l0 0c7.1586914 0 14.024292 2.8189087 19.086304 7.836609c5.0620117 5.0177 7.9057617 11.823181 7.9057617 18.919312l0 0c0 14.776855 -12.084717 26.75592 -26.992065 26.75592l0 0c-14.907349 0 -26.992188 -11.979065 -26.992188 -26.75592z" fill-rule="evenodd"/><path fill="#b4a7d6" d="m1316.0189 681.7594l0 0c0 -14.776855 11.767578 -26.75592 26.28357 -26.75592l0 0c6.970703 0 13.656006 2.8189087 18.585205 7.836609c4.929077 5.017761 7.698242 11.823181 7.698242 18.919312l0 0c0 14.776855 -11.767578 26.75592 -26.283447 26.75592l0 0c-14.515991 0 -26.28357 -11.979065 -26.28357 -26.75592z" fill-rule="evenodd"/><path fill="#ffd966" d="m1118.4811 541.96906l0 0c0 -14.7769165 12.084839 -26.75592 26.992188 -26.75592l0 0c7.1586914 0 14.024292 2.8189087 19.086304 7.836609c5.0620117 5.0177 7.9057617 11.823181 7.9057617 18.919312l0 0c0 14.776855 -12.084717 26.75592 -26.992065 26.75592l0 0c-14.907349 0 -26.992188 -11.979065 -26.992188 -26.75592z" fill-rule="evenodd"/><path fill="#d9d9d9" d="m462.1337 167.08923l0 0c0 -14.776871 11.767517 -26.755905 26.283478 -26.755905l0 0c6.9707947 0 13.656097 2.818924 18.585205 7.836624c4.9291077 5.0177 7.698242 11.823181 7.698242 18.919281l0 0c0 14.776886 -11.767487 26.755905 -26.283447 26.755905l0 0c-14.515961 0 -26.283478 -11.979019 -26.283478 -26.755905z" fill-rule="evenodd"/><path stroke="#cccccc" stroke-width="1.0" stroke-linejoin="round" stroke-linecap="butt" d="m462.1337 167.08923l0 0c0 -14.776871 11.767517 -26.755905 26.283478 -26.755905l0 0c6.9707947 0 13.656097 2.818924 18.585205 7.836624c4.9291077 5.0177 7.698242 11.823181 7.698242 18.919281l0 0c0 14.776886 -11.767487 26.755905 -26.283447 26.755905l0 0c-14.515961 0 -26.283478 -11.979019 -26.283478 -26.755905z" fill-rule="evenodd"/><path fill="#d9d9d9" d="m417.67386 292.04916l0 0c0 -14.776855 11.767517 -26.75589 26.283478 -26.75589l0 0c6.9707947 0 13.656097 2.8189087 18.585205 7.836609c4.9291077 5.0177 7.698242 11.823181 7.698242 18.919281l0 0c0 14.776886 -11.767487 26.75592 -26.283447 26.75592l0 0c-14.515961 0 -26.283478 -11.979034 -26.283478 -26.75592z" fill-rule="evenodd"/><path stroke="#cccccc" stroke-width="1.0" stroke-linejoin="round" stroke-linecap="butt" d="m417.67386 292.04916l0 0c0 -14.776855 11.767517 -26.75589 26.283478 -26.75589l0 0c6.9707947 0 13.656097 2.8189087 18.585205 7.836609c4.9291077 5.0177 7.698242 11.823181 7.698242 18.919281l0 0c0 14.776886 -11.767487 26.75592 -26.283447 26.75592l0 0c-14.515961 0 -26.283478 -11.979034 -26.283478 -26.75592z" fill-rule="evenodd"/><path fill="#d9d9d9" d="m373.21402 417.00912l0 0c0 -14.776886 11.767517 -26.75592 26.283478 -26.75592l0 0c6.9707947 0 13.656097 2.8189087 18.585205 7.836609c4.9291077 5.0177307 7.698242 11.823181 7.698242 18.919312l0 0c0 14.776855 -11.767487 26.75589 -26.283447 26.75589l0 0c-14.515961 0 -26.283478 -11.979034 -26.283478 -26.75589z" fill-rule="evenodd"/><path stroke="#cccccc" stroke-width="1.0" stroke-linejoin="round" stroke-linecap="butt" d="m373.21402 417.00912l0 0c0 -14.776886 11.767517 -26.75592 26.283478 -26.75592l0 0c6.9707947 0 13.656097 2.8189087 18.585205 7.836609c4.9291077 5.0177307 7.698242 11.823181 7.698242 18.919312l0 0c0 14.776855 -11.767487 26.75589 -26.283447 26.75589l0 0c-14.515961 0 -26.283478 -11.979034 -26.283478 -26.75589z" fill-rule="evenodd"/><path fill="#d9d9d9" d="m317.4956 541.96906l0 0c0 -14.7769165 12.084778 -26.75592 26.992126 -26.75592l0 0c7.1587524 0 14.024292 2.8189087 19.086304 7.836609c5.0620117 5.0177 7.9058228 11.823181 7.9058228 18.919312l0 0c0 14.776855 -12.084808 26.75592 -26.992126 26.75592l0 0c-14.907349 0 -26.992126 -11.979065 -26.992126 -26.75592z" fill-rule="evenodd"/><path stroke="#cccccc" stroke-width="1.0" stroke-linejoin="round" stroke-linecap="butt" d="m317.4956 541.96906l0 0c0 -14.7769165 12.084778 -26.75592 26.992126 -26.75592l0 0c7.1587524 0 14.024292 2.8189087 19.086304 7.836609c5.0620117 5.0177 7.9058228 11.823181 7.9058228 18.919312l0 0c0 14.776855 -12.084808 26.75592 -26.992126 26.75592l0 0c-14.907349 0 -26.992126 -11.979065 -26.992126 -26.75592z" fill-rule="evenodd"/><path fill="#d9d9d9" d="m270.3071 681.7594l0 0c0 -14.776855 11.767487 -26.75592 26.283447 -26.75592l0 0c6.970825 0 13.656128 2.8189087 18.585236 7.836609c4.929077 5.017761 7.698242 11.823181 7.698242 18.919312l0 0c0 14.776855 -11.767517 26.75592 -26.283478 26.75592l0 0c-14.515961 0 -26.283447 -11.979065 -26.283447 -26.75592z" fill-rule="evenodd"/><path stroke="#cccccc" stroke-width="1.0" stroke-linejoin="round" stroke-linecap="butt" d="m270.3071 681.7594l0 0c0 -14.776855 11.767487 -26.75592 26.283447 -26.75592l0 0c6.970825 0 13.656128 2.8189087 18.585236 7.836609c4.929077 5.017761 7.698242 11.823181 7.698242 18.919312l0 0c0 14.776855 -11.767517 26.75592 -26.283478 26.75592l0 0c-14.515961 0 -26.283447 -11.979065 -26.283447 -26.75592z" fill-rule="evenodd"/><path fill="#d9d9d9" d="m500.53082 292.04916l0 0c0 -14.776855 11.767517 -26.75589 26.283447 -26.75589l0 0c6.970825 0 13.656128 2.8189087 18.585266 7.836609c4.929077 5.0177 7.698242 11.823181 7.698242 18.919281l0 0c0 14.776886 -11.767517 26.75592 -26.283508 26.75592l0 0c-14.51593 0 -26.283447 -11.979034 -26.283447 -26.75592z" fill-rule="evenodd"/><path stroke="#cccccc" stroke-width="1.0" stroke-linejoin="round" stroke-linecap="butt" d="m500.53082 292.04916l0 0c0 -14.776855 11.767517 -26.75589 26.283447 -26.75589l0 0c6.970825 0 13.656128 2.8189087 18.585266 7.836609c4.929077 5.0177 7.698242 11.823181 7.698242 18.919281l0 0c0 14.776886 -11.767517 26.75592 -26.283508 26.75592l0 0c-14.51593 0 -26.283447 -11.979034 -26.283447 -26.75592z" fill-rule="evenodd"/><path fill="#d9d9d9" d="m549.0325 417.00912l0 0c0 -14.776886 11.767517 -26.75592 26.283447 -26.75592l0 0c6.970825 0 13.656128 2.8189087 18.585266 7.836609c4.929077 5.0177307 7.698242 11.823181 7.698242 18.919312l0 0c0 14.776855 -11.767517 26.75589 -26.283508 26.75589l0 0c-14.51593 0 -26.283447 -11.979034 -26.283447 -26.75589z" fill-rule="evenodd"/><path stroke="#cccccc" stroke-width="1.0" stroke-linejoin="round" stroke-linecap="butt" d="m549.0325 417.00912l0 0c0 -14.776886 11.767517 -26.75592 26.283447 -26.75592l0 0c6.970825 0 13.656128 2.8189087 18.585266 7.836609c4.929077 5.0177307 7.698242 11.823181 7.698242 18.919312l0 0c0 14.776855 -11.767517 26.75589 -26.283508 26.75589l0 0c-14.51593 0 -26.283447 -11.979034 -26.283447 -26.75589z" fill-rule="evenodd"/><path fill="#d9d9d9" d="m593.5421 541.96906l0 0c0 -14.7769165 12.084778 -26.75592 26.992126 -26.75592l0 0c7.1587524 0 14.024353 2.8189087 19.086304 7.836609c5.0620117 5.0177 7.9058228 11.823181 7.9058228 18.919312l0 0c0 14.776855 -12.084778 26.75592 -26.992126 26.75592l0 0c-14.907349 0 -26.992126 -11.979065 -26.992126 -26.75592z" fill-rule="evenodd"/><path stroke="#cccccc" stroke-width="1.0" stroke-linejoin="round" stroke-linecap="butt" d="m593.5421 541.96906l0 0c0 -14.7769165 12.084778 -26.75592 26.992126 -26.75592l0 0c7.1587524 0 14.024353 2.8189087 19.086304 7.836609c5.0620117 5.0177 7.9058228 11.823181 7.9058228 18.919312l0 0c0 14.776855 -12.084778 26.75592 -26.992126 26.75592l0 0c-14.907349 0 -26.992126 -11.979065 -26.992126 -26.75592z" fill-rule="evenodd"/><path fill="#d9d9d9" d="m652.019 681.7594l0 0c0 -14.776855 11.767517 -26.75592 26.283447 -26.75592l0 0c6.970825 0 13.656128 2.8189087 18.585205 7.836609c4.929138 5.017761 7.698303 11.823181 7.698303 18.919312l0 0c0 14.776855 -11.767517 26.75592 -26.283508 26.75592l0 0c-14.51593 0 -26.283447 -11.979065 -26.283447 -26.75592z" fill-rule="evenodd"/><path stroke="#cccccc" stroke-width="1.0" stroke-linejoin="round" stroke-linecap="butt" d="m652.019 681.7594l0 0c0 -14.776855 11.767517 -26.75592 26.283447 -26.75592l0 0c6.970825 0 13.656128 2.8189087 18.585205 7.836609c4.929138 5.017761 7.698303 11.823181 7.698303 18.919312l0 0c0 14.776855 -11.767517 26.75592 -26.283508 26.75592l0 0c-14.51593 0 -26.283447 -11.979065 -26.283447 -26.75592z" fill-rule="evenodd"/><path fill="#d9d9d9" d="m454.48108 541.96906l0 0c0 -14.7769165 12.084808 -26.75592 26.992126 -26.75592l0 0c7.158783 0 14.0243225 2.8189087 19.086334 7.836609c5.0620117 5.0177 7.905792 11.823181 7.905792 18.919312l0 0c0 14.776855 -12.084778 26.75592 -26.992126 26.75592l0 0c-14.907318 0 -26.992126 -11.979065 -26.992126 -26.75592z" fill-rule="evenodd"/><path stroke="#cccccc" stroke-width="1.0" stroke-linejoin="round" stroke-linecap="butt" d="m454.48108 541.96906l0 0c0 -14.7769165 12.084808 -26.75592 26.992126 -26.75592l0 0c7.158783 0 14.0243225 2.8189087 19.086334 7.836609c5.0620117 5.0177 7.905792 11.823181 7.905792 18.919312l0 0c0 14.776855 -12.084778 26.75592 -26.992126 26.75592l0 0c-14.907318 0 -26.992126 -11.979065 -26.992126 -26.75592z" fill-rule="evenodd"/><path fill="#000000" fill-opacity="0.0" d="m679.1076 439.57217l250.2992 1.5747986" fill-rule="evenodd"/><path stroke="#999999" stroke-width="4.0" stroke-linejoin="round" stroke-linecap="butt" d="m679.1076 439.57217l226.29968 1.4237976" fill-rule="evenodd"/><path fill="#999999" stroke="#999999" stroke-width="4.0" stroke-linecap="butt" d="m905.3657 447.60278l18.193604 -6.492584l-18.110474 -6.7210083z" fill-rule="evenodd"/><path fill="#000000" fill-opacity="0.0" d="m1107.9573 265.29327l25.88977 -79.275604" fill-rule="evenodd"/><path stroke="#44546a" stroke-width="2.0" stroke-linejoin="round" stroke-linecap="butt" d="m1107.9573 265.29327l25.88977 -79.275604" fill-rule="evenodd"/><path fill="#000000" fill-opacity="0.0" d="m1190.8143 265.29327l-19.811035 -79.275604" fill-rule="evenodd"/><path stroke="#44546a" stroke-width="2.0" stroke-linejoin="round" stroke-linecap="butt" d="m1190.8143 265.29327l-19.811035 -79.275604" fill-rule="evenodd"/><path fill="#000000" fill-opacity="0.0" d="m1134.2408 292.04916l30.299194 0" fill-rule="evenodd"/><path stroke="#44546a" stroke-width="2.0" stroke-linejoin="round" stroke-linecap="butt" d="m1134.2408 292.04916l30.299194 0" fill-rule="evenodd"/><path fill="#000000" fill-opacity="0.0" d="m1239.3159 390.2532l-29.921265 -79.275604" fill-rule="evenodd"/><path stroke="#44546a" stroke-width="2.0" stroke-linejoin="round" stroke-linecap="butt" d="m1239.3159 390.2532l-29.921265 -79.275604" fill-rule="evenodd"/><path fill="#000000" fill-opacity="0.0" d="m1063.4974 390.2532l25.88977 -79.275604" fill-rule="evenodd"/><path stroke="#44546a" stroke-width="2.0" stroke-linejoin="round" stroke-linecap="butt" d="m1063.4974 390.2532l25.88977 -79.275604" fill-rule="evenodd"/><path fill="#000000" fill-opacity="0.0" d="m1089.781 417.00912l123.24402 0" fill-rule="evenodd"/><path stroke="#44546a" stroke-width="2.0" stroke-linejoin="round" stroke-linecap="butt" d="m1089.781 417.00912l123.24402 0" fill-rule="evenodd"/><path fill="#000000" fill-opacity="0.0" d="m1239.3062 443.77417l26.141846 79.27557" fill-rule="evenodd"/><path stroke="#44546a" stroke-width="2.0" stroke-linejoin="round" stroke-linecap="butt" d="m1239.3062 443.77417l26.141846 79.27557" fill-rule="evenodd"/><path fill="#000000" fill-opacity="0.0" d="m1220.7307 435.9284l-56.15747 87.1181" fill-rule="evenodd"/><path stroke="#44546a" stroke-width="2.0" stroke-linejoin="round" stroke-linecap="butt" d="m1220.7307 435.9284l-56.15747 87.1181" fill-rule="evenodd"/><path fill="#000000" fill-opacity="0.0" d="m1257.5421 541.96906l-85.0708 0" fill-rule="evenodd"/><path stroke="#44546a" stroke-width="2.0" stroke-linejoin="round" stroke-linecap="butt" d="m1257.5421 541.96906l-85.0708 0" fill-rule="evenodd"/><path fill="#000000" fill-opacity="0.0" d="m1126.387 523.04974l-44.315063 -87.1181" fill-rule="evenodd"/><path stroke="#44546a" stroke-width="2.0" stroke-linejoin="round" stroke-linecap="butt" d="m1126.387 523.04974l-44.315063 -87.1181" fill-rule="evenodd"/><path fill="#000000" fill-opacity="0.0" d="m1044.9122 435.9284l-36.409424 79.27557" fill-rule="evenodd"/><path stroke="#44546a" stroke-width="2.0" stroke-linejoin="round" stroke-linecap="butt" d="m1044.9122 435.9284l-36.409424 79.27557" fill-rule="evenodd"/><path fill="#000000" fill-opacity="0.0" d="m1035.4799 541.96906l82.992065 0" fill-rule="evenodd"/><path stroke="#44546a" stroke-width="2.0" stroke-linejoin="round" stroke-linecap="butt" d="m1035.4799 541.96906l82.992065 0" fill-rule="evenodd"/><path fill="#000000" fill-opacity="0.0" d="m1008.48773 568.725l-29.322876 94.11023" fill-rule="evenodd"/><path stroke="#44546a" stroke-width="2.0" stroke-linejoin="round" stroke-linecap="butt" d="m1008.48773 568.725l-29.322876 94.11023" fill-rule="evenodd"/><path fill="#000000" fill-opacity="0.0" d="m1284.5343 568.725l39.18103 94.11023" fill-rule="evenodd"/><path stroke="#44546a" stroke-width="2.0" stroke-linejoin="round" stroke-linecap="butt" d="m1284.5343 568.725l39.18103 94.11023" fill-rule="evenodd"/><path fill="#000000" fill-opacity="0.0" d="m986.874 681.7594l139.52759 -120.8819" fill-rule="evenodd"/><path stroke="#44546a" stroke-width="2.0" stroke-linejoin="round" stroke-linecap="butt" d="m986.874 681.7594l139.52759 -120.8819" fill-rule="evenodd"/><path fill="#000000" fill-opacity="0.0" d="m1164.5596 560.8883l151.46448 120.8819" fill-rule="evenodd"/><path stroke="#44546a" stroke-width="2.0" stroke-linejoin="round" stroke-linecap="butt" d="m1164.5596 560.8883l151.46448 120.8819" fill-rule="evenodd"/><path fill="#000000" fill-opacity="0.0" d="m692.65094 440.68503l250.2992 0l0 54.92914l-250.2992 0z" fill-rule="evenodd"/><path fill="#000000" d="m721.8853 457.98566l0 6.84375l-0.53125 0q-0.953125 -2.8125 -2.875 -4.265625q-1.921875 -1.46875 -4.203125 -1.46875q-2.171875 0 -3.625 1.234375q-1.4375 1.21875 -2.046875 3.40625q-0.59375 2.1875 -0.59375 4.5q0 2.796875 0.65625 4.90625q0.65625 2.09375 2.125 3.09375q1.46875 0.984375 3.484375 0.984375q0.703125 0 1.4375 -0.15625q0.75 -0.15625 1.515625 -0.4375l0 -4.03125q0 -1.15625 -0.15625 -1.484375q-0.15625 -0.34375 -0.65625 -0.609375q-0.484375 -0.28125 -1.1875 -0.28125l-0.5 0l0 -0.515625l9.4375 0l0 0.515625q-1.078125 0.078125 -1.5 0.296875q-0.421875 0.21875 -0.65625 0.734375q-0.125 0.28125 -0.125 1.34375l0 4.03125q-1.859375 0.828125 -3.875 1.25q-2.015625 0.421875 -4.171875 0.421875q-2.765625 0 -4.59375 -0.75q-1.828125 -0.75 -3.21875 -1.96875q-1.390625 -1.234375 -2.1875 -2.765625q-1.0 -1.96875 -1.0 -4.421875q0 -4.375 3.078125 -7.390625q3.078125 -3.03125 7.75 -3.03125q1.453125 0 2.609375 0.234375q0.625 0.109375 2.03125 0.65625q1.421875 0.53125 1.671875 0.53125q0.40625 0 0.75 -0.296875q0.34375 -0.296875 0.625 -1.109375l0.53125 0zm9.124817 6.46875l0 3.03125q1.328125 -2.078125 2.328125 -2.75q1.0 -0.6875 1.9375 -0.6875q0.796875 0 1.28125 0.5q0.484375 0.5 0.484375 1.390625q0 0.96875 -0.46875 1.5q-0.46875 0.53125 -1.125 0.53125q-0.765625 0 -1.328125 -0.484375q-0.546875 -0.5 -0.65625 -0.546875q-0.140625 -0.09375 -0.328125 -0.09375q-0.40625 0 -0.78125 0.3125q-0.59375 0.484375 -0.890625 1.390625q-0.453125 1.390625 -0.453125 3.0625l0 3.078125l0.015625 0.8125q0 0.8125 0.09375 1.046875q0.171875 0.375 0.5 0.5625q0.34375 0.171875 1.15625 0.21875l0 0.515625l-7.234375 0l0 -0.515625q0.875 -0.078125 1.171875 -0.484375q0.3125 -0.40625 0.3125 -2.15625l0 -7.390625q0 -1.15625 -0.109375 -1.46875q-0.140625 -0.40625 -0.421875 -0.578125q-0.265625 -0.1875 -0.953125 -0.265625l0 -0.53125l5.46875 0zm14.845398 11.421875q-2.453125 2.15625 -4.390625 2.15625q-1.15625 0 -1.921875 -0.75q-0.75 -0.75 -0.75 -1.890625q0 -1.53125 1.3125 -2.75q1.328125 -1.234375 5.75 -3.265625l0 -1.34375q0 -1.515625 -0.171875 -1.90625q-0.15625 -0.390625 -0.625 -0.6875q-0.453125 -0.296875 -1.015625 -0.296875q-0.9375 0 -1.53125 0.421875q-0.375 0.25 -0.375 0.59375q0 0.296875 0.40625 0.75q0.53125 0.609375 0.53125 1.1875q0 0.703125 -0.53125 1.203125q-0.515625 0.484375 -1.359375 0.484375q-0.890625 0 -1.5 -0.546875q-0.609375 -0.546875 -0.609375 -1.265625q0 -1.03125 0.8125 -1.96875q0.8125 -0.9375 2.265625 -1.4375q1.46875 -0.515625 3.046875 -0.515625q1.90625 0 3.015625 0.8125q1.109375 0.8125 1.4375 1.75q0.203125 0.609375 0.203125 2.765625l0 5.203125q0 0.921875 0.0625 1.15625q0.078125 0.234375 0.21875 0.359375q0.140625 0.109375 0.328125 0.109375q0.375 0 0.765625 -0.53125l0.421875 0.34375q-0.703125 1.0625 -1.484375 1.546875q-0.765625 0.46875 -1.734375 0.46875q-1.140625 0 -1.796875 -0.53125q-0.640625 -0.546875 -0.78125 -1.625zm0 -1.046875l0 -4.484375q-1.734375 1.015625 -2.578125 2.171875q-0.5625 0.78125 -0.5625 1.5625q0 0.65625 0.484375 1.15625q0.359375 0.390625 1.0 0.390625q0.71875 0 1.65625 -0.796875zm12.4609375 1.65625l0 4.984375q0 1.03125 0.15625 1.40625q0.171875 0.375 0.515625 0.546875q0.34375 0.171875 1.34375 0.171875l0 0.515625l-7.625 0l0 -0.515625q0.890625 -0.03125 1.3125 -0.515625q0.28125 -0.328125 0.28125 -1.703125l0 -14.125q0 -1.421875 -0.328125 -1.8125q-0.328125 -0.390625 -1.265625 -0.453125l0 -0.53125l5.609375 0l0 1.765625q0.703125 -1.03125 1.4375 -1.5q1.046875 -0.671875 2.265625 -0.671875q1.484375 0 2.6875 0.9375q1.21875 0.9375 1.84375 2.578125q0.625 1.625 0.625 3.515625q0 2.046875 -0.65625 3.734375q-0.640625 1.671875 -1.890625 2.5625q-1.234375 0.875 -2.75 0.875q-1.09375 0 -2.0625 -0.484375q-0.71875 -0.375 -1.5 -1.28125zm0 -1.453125q1.234375 1.75 2.640625 1.75q0.765625 0 1.265625 -0.8125q0.75 -1.203125 0.75 -4.578125q0 -3.46875 -0.8125 -4.75q-0.546875 -0.84375 -1.46875 -0.84375q-1.4375 0 -2.375 2.09375l0 7.140625zm16.592163 -16.609375l0 7.75q1.109375 -1.15625 2.015625 -1.640625q0.921875 -0.484375 1.90625 -0.484375q1.265625 0 2.15625 0.71875q0.90625 0.71875 1.1875 1.6875q0.296875 0.96875 0.296875 3.25l0 5.234375q0 1.53125 0.28125 1.921875q0.296875 0.375 1.171875 0.46875l0 0.515625l-6.796875 0l0 -0.515625q0.71875 -0.09375 1.078125 -0.578125q0.265625 -0.359375 0.265625 -1.8125l0 -5.96875q0 -1.671875 -0.140625 -2.09375q-0.125 -0.421875 -0.4375 -0.65625q-0.296875 -0.234375 -0.6875 -0.234375q-0.578125 0 -1.125 0.40625q-0.53125 0.390625 -1.171875 1.375l0 7.171875q0 1.4375 0.21875 1.796875q0.28125 0.484375 1.125 0.59375l0 0.515625l-6.796875 0l0 -0.515625q0.84375 -0.078125 1.203125 -0.546875q0.25 -0.3125 0.25 -1.84375l0 -13.609375q0 -1.515625 -0.28125 -1.890625q-0.28125 -0.375 -1.171875 -0.484375l0 -0.53125l5.453125 0zm36.767944 -0.4375l0 6.734375l-0.5625 0q-0.625 -2.640625 -2.34375 -4.046875q-1.71875 -1.40625 -3.890625 -1.40625q-1.828125 0 -3.34375 1.046875q-1.515625 1.046875 -2.21875 2.734375q-0.90625 2.171875 -0.90625 4.8125q0 2.609375 0.65625 4.75q0.65625 2.140625 2.0625 3.234375q1.40625 1.09375 3.640625 1.09375q1.828125 0 3.359375 -0.796875q1.53125 -0.796875 3.21875 -2.765625l0 1.671875q-1.640625 1.703125 -3.40625 2.46875q-1.765625 0.765625 -4.125 0.765625q-3.109375 0 -5.53125 -1.234375q-2.40625 -1.25 -3.71875 -3.578125q-1.3125 -2.34375 -1.3125 -4.96875q0 -2.78125 1.453125 -5.265625q1.453125 -2.5 3.921875 -3.875q2.46875 -1.375 5.25 -1.375q2.046875 0 4.328125 0.890625q1.3125 0.515625 1.671875 0.515625q0.46875 0 0.796875 -0.328125q0.34375 -0.34375 0.4375 -1.078125l0.5625 0zm8.89856 6.0625q1.75 0 3.25 0.90625q1.515625 0.90625 2.296875 2.578125q0.78125 1.65625 0.78125 3.625q0 2.84375 -1.453125 4.765625q-1.75 2.328125 -4.828125 2.328125q-3.015625 0 -4.65625 -2.125q-1.625 -2.125 -1.625 -4.90625q0 -2.890625 1.65625 -5.03125q1.671875 -2.140625 4.578125 -2.140625zm0.0625 1.015625q-0.734375 0 -1.265625 0.5625q-0.515625 0.546875 -0.6875 2.171875q-0.15625 1.625 -0.15625 4.515625q0 1.53125 0.203125 2.875q0.15625 1.015625 0.671875 1.546875q0.515625 0.515625 1.171875 0.515625q0.65625 0 1.078125 -0.34375q0.5625 -0.5 0.75 -1.375q0.28125 -1.359375 0.28125 -5.484375q0 -2.4375 -0.28125 -3.34375q-0.265625 -0.921875 -0.796875 -1.328125q-0.359375 -0.3125 -0.96875 -0.3125zm13.7578125 -0.609375l0 1.734375q1.03125 -1.125 1.96875 -1.625q0.953125 -0.515625 2.046875 -0.515625q1.296875 0 2.15625 0.734375q0.859375 0.71875 1.15625 1.796875q0.21875 0.8125 0.21875 3.125l0 5.21875q0 1.546875 0.28125 1.9375q0.28125 0.375 1.171875 0.46875l0 0.515625l-6.78125 0l0 -0.515625q0.765625 -0.09375 1.09375 -0.625q0.234375 -0.359375 0.234375 -1.78125l0 -5.953125q0 -1.65625 -0.140625 -2.078125q-0.125 -0.4375 -0.4375 -0.671875q-0.296875 -0.234375 -0.671875 -0.234375q-1.234375 0 -2.296875 1.765625l0 7.171875q0 1.5 0.28125 1.90625q0.28125 0.40625 1.046875 0.5l0 0.515625l-6.78125 0l0 -0.515625q0.84375 -0.078125 1.203125 -0.546875q0.25 -0.3125 0.25 -1.859375l0 -7.5625q0 -1.515625 -0.28125 -1.890625q-0.28125 -0.375 -1.171875 -0.484375l0 -0.53125l5.453125 0zm19.310913 -0.375l0.21875 4.578125l-0.5 0q-0.859375 -2.046875 -1.796875 -2.78125q-0.9375 -0.75 -1.875 -0.75q-0.59375 0 -1.015625 0.40625q-0.40625 0.390625 -0.40625 0.90625q0 0.375 0.296875 0.734375q0.453125 0.59375 2.546875 2.015625q2.109375 1.421875 2.78125 2.421875q0.671875 1.0 0.671875 2.21875q0 1.125 -0.5625 2.203125q-0.5625 1.0625 -1.578125 1.640625q-1.015625 0.578125 -2.25 0.578125q-0.953125 0 -2.5625 -0.609375q-0.421875 -0.15625 -0.59375 -0.15625q-0.46875 0 -0.78125 0.71875l-0.46875 0l-0.234375 -4.8125l0.484375 0q0.65625 1.890625 1.765625 2.84375q1.125 0.9375 2.140625 0.9375q0.6875 0 1.125 -0.421875q0.4375 -0.421875 0.4375 -1.03125q0 -0.6875 -0.4375 -1.1875q-0.421875 -0.5 -1.921875 -1.515625q-2.1875 -1.515625 -2.828125 -2.3125q-0.953125 -1.171875 -0.953125 -2.59375q0 -1.546875 1.0625 -2.796875q1.078125 -1.265625 3.09375 -1.265625q1.09375 0 2.109375 0.53125q0.375 0.21875 0.625 0.21875q0.265625 0 0.421875 -0.109375q0.15625 -0.109375 0.5 -0.609375l0.484375 0zm8.25708 -4.515625l0 4.890625l3.1875 0l0 1.421875l-3.1875 0l0 8.265625q0 1.15625 0.109375 1.5q0.109375 0.328125 0.375 0.546875q0.28125 0.203125 0.515625 0.203125q0.921875 0 1.75 -1.421875l0.4375 0.3125q-1.171875 2.75 -3.765625 2.75q-1.28125 0 -2.171875 -0.703125q-0.875 -0.71875 -1.109375 -1.59375q-0.140625 -0.484375 -0.140625 -2.625l0 -7.234375l-1.75 0l0 -0.5q1.796875 -1.28125 3.0625 -2.671875q1.28125 -1.40625 2.21875 -3.140625l0.46875 0zm10.016541 4.890625l0 3.03125q1.328125 -2.078125 2.328125 -2.75q1.0 -0.6875 1.9375 -0.6875q0.796875 0 1.28125 0.5q0.484375 0.5 0.484375 1.390625q0 0.96875 -0.46875 1.5q-0.46875 0.53125 -1.125 0.53125q-0.765625 0 -1.328125 -0.484375q-0.546875 -0.5 -0.65625 -0.546875q-0.140625 -0.09375 -0.328125 -0.09375q-0.40625 0 -0.78125 0.3125q-0.59375 0.484375 -0.890625 1.390625q-0.453125 1.390625 -0.453125 3.0625l0 3.078125l0.015625 0.8125q0 0.8125 0.09375 1.046875q0.171875 0.375 0.5 0.5625q0.34375 0.171875 1.15625 0.21875l0 0.515625l-7.234375 0l0 -0.515625q0.875 -0.078125 1.171875 -0.484375q0.3125 -0.40625 0.3125 -2.15625l0 -7.390625q0 -1.15625 -0.109375 -1.46875q-0.140625 -0.40625 -0.421875 -0.578125q-0.265625 -0.1875 -0.953125 -0.265625l0 -0.53125l5.46875 0zm20.392212 0l0 10.484375q0 1.53125 0.28125 1.921875q0.296875 0.375 1.15625 0.46875l0 0.515625l-5.453125 0l0 -1.796875q-0.953125 1.15625 -1.921875 1.6875q-0.953125 0.515625 -2.140625 0.515625q-1.125 0 -2.015625 -0.6875q-0.875 -0.703125 -1.1875 -1.625q-0.296875 -0.9375 -0.296875 -3.265625l0 -5.3125q0 -1.515625 -0.28125 -1.890625q-0.265625 -0.375 -1.15625 -0.484375l0 -0.53125l5.453125 0l0 9.15625q0 1.421875 0.125 1.84375q0.140625 0.421875 0.4375 0.640625q0.296875 0.203125 0.6875 0.203125q0.515625 0 0.921875 -0.265625q0.578125 -0.375 1.375 -1.515625l0 -7.15625q0 -1.515625 -0.28125 -1.890625q-0.28125 -0.375 -1.15625 -0.484375l0 -0.53125l5.453125 0zm14.310913 9.9375l0.4375 0.34375q-0.953125 1.78125 -2.359375 2.65625q-1.40625 0.859375 -3.0 0.859375q-2.671875 0 -4.28125 -2.015625q-1.609375 -2.03125 -1.609375 -4.859375q0 -2.734375 1.46875 -4.8125q1.765625 -2.515625 4.859375 -2.515625q2.078125 0 3.296875 1.046875q1.21875 1.046875 1.21875 2.34375q0 0.8125 -0.5 1.296875q-0.484375 0.484375 -1.28125 0.484375q-0.84375 0 -1.40625 -0.546875q-0.546875 -0.5625 -0.671875 -2.0q-0.09375 -0.90625 -0.421875 -1.265625q-0.328125 -0.34375 -0.765625 -0.34375q-0.6875 0 -1.171875 0.71875q-0.75 1.109375 -0.75 3.390625q0 1.890625 0.59375 3.609375q0.609375 1.71875 1.65625 2.578125q0.78125 0.609375 1.859375 0.609375q0.703125 0 1.328125 -0.328125q0.640625 -0.328125 1.5 -1.25zm7.392212 -14.828125l0 4.890625l3.1875 0l0 1.421875l-3.1875 0l0 8.265625q0 1.15625 0.109375 1.5q0.109375 0.328125 0.375 0.546875q0.28125 0.203125 0.515625 0.203125q0.921875 0 1.75 -1.421875l0.4375 0.3125q-1.171875 2.75 -3.765625 2.75q-1.28125 0 -2.171875 -0.703125q-0.875 -0.71875 -1.109375 -1.59375q-0.140625 -0.484375 -0.140625 -2.625l0 -7.234375l-1.75 0l0 -0.5q1.796875 -1.28125 3.0625 -2.671875q1.28125 -1.40625 2.21875 -3.140625l0.46875 0z" fill-rule="nonzero"/></g></svg>